<?xml version="1.0" encoding="utf-8"?>
<!-- Generator: Adobe Illustrator 21.0.2, SVG Export Plug-In . SVG Version: 6.00 Build 0)  -->
<svg version="1.1" id="Layer_1" xmlns="http://www.w3.org/2000/svg" xmlns:xlink="http://www.w3.org/1999/xlink" x="0px" y="0px"
	 viewBox="0 0 144 144" style="enable-background:new 0 0 144 144;" xml:space="preserve">
<style type="text/css">
	.st0{fill:#D16565;}
</style>
<path class="st0" d="M139.2,73.8l0.3-45.1L103.7,2.9l-0.1-0.1H42.4l-35.9,26l0.3,45.1l-0.7,0.3L33,101l0.2,0.2v26.1L72.6,143l0.4,0
	l0.1,0l0,0l0.1,0l39.7-15.7v-26.1l27.1-27.1L139.2,73.8z M18.2,73.6l6-17.2l7.4-1.6l-7.6,21.6l-0.3,0.1l0.2-0.5L18.2,73.6z
	 M31.8,54.3L31.8,54.3L31.8,54.3L31.8,54.3z M77.5,118.4l-2,2l4-7.6l1-1.1L77.5,118.4z M69.2,126.8l-4-3.8l2.9-3l4.2,3.7L69.2,126.8
	z M59.9,118.7l-0.1-0.1L59.9,118.7L59.9,118.7z M55.2,39.2l10.8,12.2l-16.3-4.9L55.2,39.2z M90.7,39.1l5.5,7.4l-16,4.8L90.7,39.1z
	 M75.2,92.8l-1.5-8.6l19.6,12.2l-10.1,10.9L75.2,92.8z M68.5,118.9l-2.6-6.3l5.8,9L68.5,118.9z M73.4,74.4l6.2-5.6l13.9,26.5
	L73.4,82.8V74.4z M79.3,67.6l-5.4,4.9l5.3-19L79.3,67.6z M67,53.6l4.9,18.8l-5-4.9L67,53.6z M66.7,68.8l5.7,5.6v8.4L52.8,95.3
	L66.7,68.8z M72.2,84.2l-1.5,8.7l-7.9,14.2l-9.7-10.7L72.2,84.2z M65.6,111.9L65.6,111.9l-0.1-0.1L65.6,111.9z M67.1,112.6l4.6-3.7
	l0.1-16.1l1.2-6.8l1.1,6.3L74,109l4.4,3.6l-5.1,9.8L67.1,112.6z M72.9,72.2l-5.2-20h10.8L72.9,72.2z M51.6,96.3l9.3,10.3l-15.7-9.7
	L51.6,96.3z M67.4,119.1l-3,3.1l-4-3.8l3.4-8L67.4,119.1z M94.7,96.3l6.6,0.6l-16.1,9.7L94.7,96.3z M96.8,46.4L96.8,46.4L96.8,46.4
	L96.8,46.4L96.8,46.4z M96.9,45.6l-5.1-6.9h15L96.9,45.6z M90.2,38.1L79.3,50.8l-5.5-7.1L90.2,22V38.1z M78.2,51.1H68.1l5-6.6
	L78.2,51.1z M67,50.8L55.7,38V22l16.8,21.6L67,50.8z M49.2,45.4l-9.9-6.9h15L49.2,45.4z M31.4,53.8l-6.4,1.4l11-14.2L31.4,53.8z
	 M38,38.8l10.6,7.4l0,0l0.4,0.3L32.5,54L38,38.8z M63,109.2l-12.7,17.1L44,109.6l-0.1-0.1l0.5-11.9L63,109.2z M44.1,112.8l4.3,11.3
	l-4.3-5.6V112.8z M61.6,112.8l-2.3,5.3l-5.4,5L61.6,112.8z M59.8,119.3l3.9,3.7l-3.8,3.9l-4-4.1L59.8,119.3z M64.4,123.7l4.3,4.1
	l3.1,12.7l-11.2-12.9L64.4,123.7z M69.8,127.7l3.3-3.4l3.9,3.4l-4.1,12.8L69.8,127.7z M77.6,126.9l-3.8-3.3l4-4.1l3.5,3.6
	L77.6,126.9z M78.4,118.7l3.8-8.4l3.5,8.3l-3.7,3.8L78.4,118.7z M101.7,97.9l0.5,11.9l-6.4,16.7L83,109.2L101.7,97.9z M102.1,97
	L102.1,97L102.1,97L102.1,97L102.1,97z M97.3,46.6l10.8-7.6l5.6,14.9L97.3,46.6z M114.5,54.3L114.5,54.3L114.5,54.3L114.5,54.3z
	 M114.9,53.8l-4.7-12.5l10.9,14L114.9,53.8z M91.2,37.7V20.6l11.8-16l4.8,33.1H91.2z M73.1,42.8L55.8,20.5l17-16.5L90,20.5
	L73.1,42.8z M54.6,37.5H38.3l4.8-33.1l11.5,16.3V37.5z M23.8,55.1L8.3,29.7l28.5,8.6L23.8,55.1z M43.5,96.4l-9.7,3.4l-9.1-22.2
	L43.5,96.4z M43.4,97.5L43,108.6l-8.5-8L43.4,97.5z M43.1,118.6l-7.5,6.1l7.5-12.8V118.6z M43.6,119.5l5.6,7.2l-14-0.4L43.6,119.5z
	 M55.1,123.6l4.4,4.5l10.3,11.8l-18.7-12.6L55.1,123.6z M78.1,127.9l3.9-4l3.5,3.6l-11.4,12.8L78.1,127.9z M86.2,126.7l-3.5-3.6
	l3.6-3.7l3.7,3.4L86.2,126.7z M86.8,118.4l-2.3-5.5l7.8,10.6L86.8,118.4z M102.2,112.7v5.9l-4.5,5.8L102.2,112.7z M103.2,111.8
	l7,12.5l-7-5.8V111.8z M102.7,97.7l8.8,3.1l-8.3,7.8L102.7,97.7z M111.8,99.7L111.8,99.7l-9.2-3.1l18.8-18.8l-9.1,22.2L111.8,99.7z
	 M122.2,76.3l-7.5-21.4l7.3,1.8l6,17.2L122.2,76.3z M122.3,55.3l-13-16.8l28.5-8.6L122.3,55.3z M108.9,37.6l-4.8-33.1l33.7,24.4
	L108.9,37.6z M90.6,19.7L74.1,3.8h28.2L90.6,19.7z M55.2,19.7L44,3.8h27.5L55.2,19.7z M37.3,37.3L8.4,28.6L42,4.4L37.3,37.3z
	 M23.2,56.1l-6,17.3H7.8l-0.3-43L23.2,56.1z M17.4,74.5l5.9,2.5l8.9,21.9L7.9,74.5H17.4z M34.2,101.8l8.7,8.2l-8.7,14.9V101.8z
	 M50.1,127.8l18.5,12.4l-31.9-12.8L50.1,127.8z M86.6,127.8l4.2-4.3l4.3,3.9L75.8,140L86.6,127.8z M102.8,119.5l8,6.6L97,127
	L102.8,119.5z M103.3,109.9l8.4-7.9v22.9L103.3,109.9z M122.8,77.2l5.9-2.5h9.1l-23.8,23.8L122.8,77.2z M129,73.6l-6-17.3l15.5-25.4
	l-0.3,42.7H129z M96.1,128.1l14-0.8l-32.5,12.9L96.1,128.1z"/>
</svg>
